<mxfile host="app.diagrams.net" agent="Mozilla/5.0 (Windows NT 10.0; Win64; x64) AppleWebKit/537.36 (KHTML, like Gecko) Chrome/134.0.0.0 Safari/537.36" version="26.2.2">
  <diagram id="C5RBs43oDa-KdzZeNtuy" name="Page-1">
    <mxGraphModel dx="430" dy="533" grid="1" gridSize="10" guides="1" tooltips="1" connect="1" arrows="1" fold="1" page="1" pageScale="1" pageWidth="827" pageHeight="1169" math="0" shadow="0">
      <root>
        <mxCell id="WIyWlLk6GJQsqaUBKTNV-0" />
        <mxCell id="WIyWlLk6GJQsqaUBKTNV-1" parent="WIyWlLk6GJQsqaUBKTNV-0" />
        <mxCell id="WIyWlLk6GJQsqaUBKTNV-2" value="" style="rounded=0;html=1;jettySize=auto;orthogonalLoop=1;fontSize=11;endArrow=block;endFill=0;endSize=8;strokeWidth=1;shadow=0;labelBackgroundColor=none;edgeStyle=orthogonalEdgeStyle;" parent="WIyWlLk6GJQsqaUBKTNV-1" source="WIyWlLk6GJQsqaUBKTNV-3" target="WIyWlLk6GJQsqaUBKTNV-6" edge="1">
          <mxGeometry relative="1" as="geometry" />
        </mxCell>
        <mxCell id="WIyWlLk6GJQsqaUBKTNV-3" value="Início" style="rounded=1;whiteSpace=wrap;html=1;fontSize=12;glass=0;strokeWidth=1;shadow=0;" parent="WIyWlLk6GJQsqaUBKTNV-1" vertex="1">
          <mxGeometry x="160" y="80" width="120" height="40" as="geometry" />
        </mxCell>
        <mxCell id="pTGZSX5_SOmigmydUmy0-1" style="edgeStyle=none;curved=1;rounded=0;orthogonalLoop=1;jettySize=auto;html=1;exitX=0.5;exitY=1;exitDx=0;exitDy=0;entryX=0.5;entryY=0;entryDx=0;entryDy=0;fontSize=12;startSize=8;endSize=8;" edge="1" parent="WIyWlLk6GJQsqaUBKTNV-1" source="WIyWlLk6GJQsqaUBKTNV-6" target="pTGZSX5_SOmigmydUmy0-0">
          <mxGeometry relative="1" as="geometry" />
        </mxCell>
        <mxCell id="WIyWlLk6GJQsqaUBKTNV-6" value="Pegue uma panela adequada&amp;nbsp;" style="rhombus;whiteSpace=wrap;html=1;shadow=0;fontFamily=Helvetica;fontSize=12;align=center;strokeWidth=1;spacing=6;spacingTop=-4;" parent="WIyWlLk6GJQsqaUBKTNV-1" vertex="1">
          <mxGeometry x="150" y="170" width="140" height="100" as="geometry" />
        </mxCell>
        <mxCell id="pTGZSX5_SOmigmydUmy0-9" style="edgeStyle=none;curved=1;rounded=0;orthogonalLoop=1;jettySize=auto;html=1;exitX=0.5;exitY=1;exitDx=0;exitDy=0;fontSize=12;startSize=8;endSize=8;" edge="1" parent="WIyWlLk6GJQsqaUBKTNV-1" source="WIyWlLk6GJQsqaUBKTNV-10" target="pTGZSX5_SOmigmydUmy0-8">
          <mxGeometry relative="1" as="geometry">
            <Array as="points">
              <mxPoint x="130" y="600" />
            </Array>
          </mxGeometry>
        </mxCell>
        <mxCell id="WIyWlLk6GJQsqaUBKTNV-10" value="Pegue um pacote&lt;div&gt;de macarrão&lt;/div&gt;" style="rhombus;whiteSpace=wrap;html=1;shadow=0;fontFamily=Helvetica;fontSize=12;align=center;strokeWidth=1;spacing=6;spacingTop=-4;" parent="WIyWlLk6GJQsqaUBKTNV-1" vertex="1">
          <mxGeometry x="70" y="430" width="130" height="110" as="geometry" />
        </mxCell>
        <mxCell id="pTGZSX5_SOmigmydUmy0-3" value="" style="edgeStyle=none;curved=1;rounded=0;orthogonalLoop=1;jettySize=auto;html=1;fontSize=12;startSize=8;endSize=8;" edge="1" parent="WIyWlLk6GJQsqaUBKTNV-1" source="pTGZSX5_SOmigmydUmy0-0" target="WIyWlLk6GJQsqaUBKTNV-10">
          <mxGeometry relative="1" as="geometry" />
        </mxCell>
        <mxCell id="pTGZSX5_SOmigmydUmy0-5" style="edgeStyle=none;curved=1;rounded=0;orthogonalLoop=1;jettySize=auto;html=1;fontSize=12;startSize=8;endSize=8;" edge="1" parent="WIyWlLk6GJQsqaUBKTNV-1" source="pTGZSX5_SOmigmydUmy0-0">
          <mxGeometry relative="1" as="geometry">
            <mxPoint x="300" y="450" as="targetPoint" />
          </mxGeometry>
        </mxCell>
        <mxCell id="pTGZSX5_SOmigmydUmy0-0" value="Para uma pessoa?" style="whiteSpace=wrap;html=1;aspect=fixed;" vertex="1" parent="WIyWlLk6GJQsqaUBKTNV-1">
          <mxGeometry x="181" y="305" width="80" height="80" as="geometry" />
        </mxCell>
        <mxCell id="pTGZSX5_SOmigmydUmy0-2" style="edgeStyle=none;curved=1;rounded=0;orthogonalLoop=1;jettySize=auto;html=1;entryX=0.5;entryY=0;entryDx=0;entryDy=0;fontSize=12;startSize=8;endSize=8;" edge="1" parent="WIyWlLk6GJQsqaUBKTNV-1" source="WIyWlLk6GJQsqaUBKTNV-10" target="WIyWlLk6GJQsqaUBKTNV-10">
          <mxGeometry relative="1" as="geometry" />
        </mxCell>
        <mxCell id="pTGZSX5_SOmigmydUmy0-4" value="Sim" style="text;html=1;align=center;verticalAlign=middle;resizable=0;points=[];autosize=1;strokeColor=none;fillColor=none;fontSize=16;" vertex="1" parent="WIyWlLk6GJQsqaUBKTNV-1">
          <mxGeometry x="119" y="381" width="50" height="30" as="geometry" />
        </mxCell>
        <mxCell id="pTGZSX5_SOmigmydUmy0-10" style="edgeStyle=none;curved=1;rounded=0;orthogonalLoop=1;jettySize=auto;html=1;exitX=0.5;exitY=1;exitDx=0;exitDy=0;entryX=1;entryY=0;entryDx=0;entryDy=0;fontSize=12;startSize=8;endSize=8;" edge="1" parent="WIyWlLk6GJQsqaUBKTNV-1" source="pTGZSX5_SOmigmydUmy0-6" target="pTGZSX5_SOmigmydUmy0-8">
          <mxGeometry relative="1" as="geometry">
            <Array as="points">
              <mxPoint x="320" y="610" />
            </Array>
          </mxGeometry>
        </mxCell>
        <mxCell id="pTGZSX5_SOmigmydUmy0-6" value="Pegue a quantidade de&amp;nbsp;&amp;nbsp;&lt;div&gt;pacotes&amp;nbsp;&lt;span style=&quot;background-color: transparent; color: light-dark(rgb(0, 0, 0), rgb(255, 255, 255));&quot;&gt;de macarrão igual&amp;nbsp;&lt;/span&gt;&lt;/div&gt;&lt;div&gt;&lt;span style=&quot;background-color: transparent; color: light-dark(rgb(0, 0, 0), rgb(255, 255, 255));&quot;&gt;ao&amp;nbsp;&lt;/span&gt;&lt;span style=&quot;background-color: transparent; color: light-dark(rgb(0, 0, 0), rgb(255, 255, 255));&quot;&gt;número de pessoas&lt;/span&gt;&lt;/div&gt;" style="rhombus;whiteSpace=wrap;html=1;shadow=0;fontFamily=Helvetica;fontSize=12;align=center;strokeWidth=1;spacing=6;spacingTop=-4;" vertex="1" parent="WIyWlLk6GJQsqaUBKTNV-1">
          <mxGeometry x="258" y="409" width="179" height="160" as="geometry" />
        </mxCell>
        <mxCell id="pTGZSX5_SOmigmydUmy0-7" value="Não" style="text;html=1;align=center;verticalAlign=middle;resizable=0;points=[];autosize=1;strokeColor=none;fillColor=none;fontSize=16;" vertex="1" parent="WIyWlLk6GJQsqaUBKTNV-1">
          <mxGeometry x="270" y="381" width="50" height="30" as="geometry" />
        </mxCell>
        <mxCell id="pTGZSX5_SOmigmydUmy0-18" value="" style="edgeStyle=none;curved=1;rounded=0;orthogonalLoop=1;jettySize=auto;html=1;fontSize=12;startSize=8;endSize=8;" edge="1" parent="WIyWlLk6GJQsqaUBKTNV-1" source="pTGZSX5_SOmigmydUmy0-8" target="pTGZSX5_SOmigmydUmy0-11">
          <mxGeometry relative="1" as="geometry" />
        </mxCell>
        <mxCell id="pTGZSX5_SOmigmydUmy0-8" value="Separe a porção de água&amp;nbsp;&lt;div&gt;adequada a cada pacote&lt;/div&gt;" style="rhombus;whiteSpace=wrap;html=1;" vertex="1" parent="WIyWlLk6GJQsqaUBKTNV-1">
          <mxGeometry x="131.5" y="583" width="179" height="155" as="geometry" />
        </mxCell>
        <mxCell id="pTGZSX5_SOmigmydUmy0-17" value="" style="edgeStyle=none;curved=1;rounded=0;orthogonalLoop=1;jettySize=auto;html=1;fontSize=12;startSize=8;endSize=8;" edge="1" parent="WIyWlLk6GJQsqaUBKTNV-1" source="pTGZSX5_SOmigmydUmy0-11" target="pTGZSX5_SOmigmydUmy0-12">
          <mxGeometry relative="1" as="geometry" />
        </mxCell>
        <mxCell id="pTGZSX5_SOmigmydUmy0-11" value="Ligue o fogão" style="rhombus;whiteSpace=wrap;html=1;" vertex="1" parent="WIyWlLk6GJQsqaUBKTNV-1">
          <mxGeometry x="145.75" y="773" width="148.5" height="100" as="geometry" />
        </mxCell>
        <mxCell id="pTGZSX5_SOmigmydUmy0-15" value="" style="edgeStyle=none;curved=1;rounded=0;orthogonalLoop=1;jettySize=auto;html=1;fontSize=12;startSize=8;endSize=8;" edge="1" parent="WIyWlLk6GJQsqaUBKTNV-1" source="pTGZSX5_SOmigmydUmy0-12" target="pTGZSX5_SOmigmydUmy0-13">
          <mxGeometry relative="1" as="geometry" />
        </mxCell>
        <mxCell id="pTGZSX5_SOmigmydUmy0-12" value="Coloque a panela na boca&amp;nbsp;&lt;div&gt;acessa do fogão&amp;nbsp;&lt;/div&gt;" style="rhombus;whiteSpace=wrap;html=1;" vertex="1" parent="WIyWlLk6GJQsqaUBKTNV-1">
          <mxGeometry x="128.88" y="900" width="184.25" height="130" as="geometry" />
        </mxCell>
        <mxCell id="pTGZSX5_SOmigmydUmy0-16" value="" style="edgeStyle=none;curved=1;rounded=0;orthogonalLoop=1;jettySize=auto;html=1;fontSize=12;startSize=8;endSize=8;" edge="1" parent="WIyWlLk6GJQsqaUBKTNV-1" source="pTGZSX5_SOmigmydUmy0-13" target="pTGZSX5_SOmigmydUmy0-14">
          <mxGeometry relative="1" as="geometry" />
        </mxCell>
        <mxCell id="pTGZSX5_SOmigmydUmy0-13" value="Coloque a água na panela" style="rhombus;whiteSpace=wrap;html=1;" vertex="1" parent="WIyWlLk6GJQsqaUBKTNV-1">
          <mxGeometry x="149.94" y="1080" width="142.12" height="110" as="geometry" />
        </mxCell>
        <mxCell id="pTGZSX5_SOmigmydUmy0-20" value="" style="edgeStyle=none;curved=1;rounded=0;orthogonalLoop=1;jettySize=auto;html=1;fontSize=12;startSize=8;endSize=8;" edge="1" parent="WIyWlLk6GJQsqaUBKTNV-1" source="pTGZSX5_SOmigmydUmy0-14" target="pTGZSX5_SOmigmydUmy0-19">
          <mxGeometry relative="1" as="geometry" />
        </mxCell>
        <mxCell id="pTGZSX5_SOmigmydUmy0-14" value="Coloque o macarrão&amp;nbsp;&lt;div&gt;na panela&lt;/div&gt;" style="rhombus;whiteSpace=wrap;html=1;" vertex="1" parent="WIyWlLk6GJQsqaUBKTNV-1">
          <mxGeometry x="149.94" y="1240" width="142.12" height="110" as="geometry" />
        </mxCell>
        <mxCell id="pTGZSX5_SOmigmydUmy0-22" value="" style="edgeStyle=none;curved=1;rounded=0;orthogonalLoop=1;jettySize=auto;html=1;fontSize=12;startSize=8;endSize=8;" edge="1" parent="WIyWlLk6GJQsqaUBKTNV-1" source="pTGZSX5_SOmigmydUmy0-19" target="pTGZSX5_SOmigmydUmy0-21">
          <mxGeometry relative="1" as="geometry" />
        </mxCell>
        <mxCell id="pTGZSX5_SOmigmydUmy0-19" value="Coloque o tempero&lt;div&gt;no macarrão&lt;/div&gt;" style="rhombus;whiteSpace=wrap;html=1;" vertex="1" parent="WIyWlLk6GJQsqaUBKTNV-1">
          <mxGeometry x="148.94" y="1389" width="142.12" height="110" as="geometry" />
        </mxCell>
        <mxCell id="pTGZSX5_SOmigmydUmy0-25" value="" style="edgeStyle=none;curved=1;rounded=0;orthogonalLoop=1;jettySize=auto;html=1;fontSize=12;startSize=8;endSize=8;" edge="1" parent="WIyWlLk6GJQsqaUBKTNV-1" source="pTGZSX5_SOmigmydUmy0-21" target="pTGZSX5_SOmigmydUmy0-23">
          <mxGeometry relative="1" as="geometry" />
        </mxCell>
        <mxCell id="pTGZSX5_SOmigmydUmy0-21" value="Aguarde 3 minutos&amp;nbsp;&lt;div&gt;após o inicio da água fervente&lt;/div&gt;" style="rhombus;whiteSpace=wrap;html=1;" vertex="1" parent="WIyWlLk6GJQsqaUBKTNV-1">
          <mxGeometry x="144.47" y="1530" width="151.06" height="130" as="geometry" />
        </mxCell>
        <mxCell id="pTGZSX5_SOmigmydUmy0-26" value="" style="edgeStyle=none;curved=1;rounded=0;orthogonalLoop=1;jettySize=auto;html=1;fontSize=12;startSize=8;endSize=8;" edge="1" parent="WIyWlLk6GJQsqaUBKTNV-1" source="pTGZSX5_SOmigmydUmy0-23" target="pTGZSX5_SOmigmydUmy0-24">
          <mxGeometry relative="1" as="geometry" />
        </mxCell>
        <mxCell id="pTGZSX5_SOmigmydUmy0-23" value="Desligue o fogão" style="rhombus;whiteSpace=wrap;html=1;" vertex="1" parent="WIyWlLk6GJQsqaUBKTNV-1">
          <mxGeometry x="159.47" y="1691" width="125.53" height="101" as="geometry" />
        </mxCell>
        <mxCell id="pTGZSX5_SOmigmydUmy0-28" value="" style="edgeStyle=none;curved=1;rounded=0;orthogonalLoop=1;jettySize=auto;html=1;fontSize=12;startSize=8;endSize=8;" edge="1" parent="WIyWlLk6GJQsqaUBKTNV-1" source="pTGZSX5_SOmigmydUmy0-24" target="pTGZSX5_SOmigmydUmy0-27">
          <mxGeometry relative="1" as="geometry" />
        </mxCell>
        <mxCell id="pTGZSX5_SOmigmydUmy0-24" value="Sirva" style="rhombus;whiteSpace=wrap;html=1;" vertex="1" parent="WIyWlLk6GJQsqaUBKTNV-1">
          <mxGeometry x="158.24" y="1830" width="125.53" height="101" as="geometry" />
        </mxCell>
        <mxCell id="pTGZSX5_SOmigmydUmy0-27" value="FIM" style="rounded=1;whiteSpace=wrap;html=1;" vertex="1" parent="WIyWlLk6GJQsqaUBKTNV-1">
          <mxGeometry x="162.24" y="1974" width="120" height="60" as="geometry" />
        </mxCell>
      </root>
    </mxGraphModel>
  </diagram>
</mxfile>
